<svg width="16" height="17" viewBox="0 0 16 17" fill="none" xmlns="http://www.w3.org/2000/svg">
<path fill-rule="evenodd" clip-rule="evenodd" d="M2.86225 3.36195C3.1226 3.1016 3.54471 3.1016 3.80506 3.36195L8.00032 7.55721L12.1956 3.36195C12.4559 3.1016 12.878 3.1016 13.1384 3.36195C13.3987 3.6223 13.3987 4.04441 13.1384 4.30476L8.94313 8.50002L13.1384 12.6953C13.3987 12.9556 13.3987 13.3777 13.1384 13.6381C12.878 13.8984 12.4559 13.8984 12.1956 13.6381L8.00032 9.44282L3.80506 13.6381C3.54471 13.8984 3.1226 13.8984 2.86225 13.6381C2.60191 13.3777 2.6019 12.9556 2.86225 12.6953L7.05751 8.50002L2.86225 4.30476C2.6019 4.04441 2.6019 3.6223 2.86225 3.36195Z" fill="#9A9CA5"/>
</svg>
