<svg width="24" height="24" viewBox="0 0 24 24" fill="none" xmlns="http://www.w3.org/2000/svg">
<path fill-rule="evenodd" clip-rule="evenodd" d="M6.75886 2.50777C7.29232 2.65071 7.60891 3.19904 7.46596 3.73251L6.99273 5.49864L7.50004 5.20574C11.8047 2.72046 17.309 4.19534 19.7943 8.49997C22.2795 12.8046 20.8047 18.3089 16.5 20.7942C12.1954 23.2795 6.69109 21.8046 4.20581 17.5C3.92967 17.0217 4.09354 16.4101 4.57184 16.1339C5.05013 15.8578 5.66172 16.0217 5.93786 16.5C7.87086 19.848 12.152 20.9951 15.5 19.0621C18.8481 17.1292 19.9952 12.848 18.0622 9.49997C16.1292 6.15192 11.8481 5.0048 8.50004 6.93779L7.99273 7.23069L9.75886 7.70392C10.2923 7.84686 10.6089 8.3952 10.466 8.92866C10.323 9.46213 9.77469 9.77871 9.24122 9.63577L5.14314 8.53769C4.60968 8.39475 4.2931 7.84641 4.43604 7.31295L5.53411 3.21487C5.67705 2.68141 6.22539 2.36482 6.75886 2.50777Z" fill="#1E212C"/>
</svg>
