<svg width="24" height="24" viewBox="0 0 24 24" fill="none" xmlns="http://www.w3.org/2000/svg">
<g clip-path="url(#clip0_1017_7215)">
<path fill-rule="evenodd" clip-rule="evenodd" d="M18.4303 3.93449C16.6241 2.12831 13.6957 2.12831 11.8895 3.93449L5.54782 10.2762C5.1573 10.6667 4.52413 10.6667 4.13361 10.2762C3.74308 9.88569 3.74308 9.25252 4.13361 8.862L10.4753 2.52028C13.0626 -0.0669475 17.2573 -0.0669475 19.8445 2.52028C22.4317 5.1075 22.4317 9.30222 19.8445 11.8894L11.3137 20.4202C9.45873 22.2752 6.45119 22.2752 4.5962 20.4202C2.74121 18.5652 2.74121 15.5577 4.5962 13.7027L4.60003 13.6989L4.60004 13.6989L11.0404 7.32796C11.0411 7.32725 11.0418 7.32654 11.0425 7.32583C12.1407 6.22985 13.9252 6.14693 15.0715 7.29326C16.1943 8.41602 16.1943 10.2364 15.0715 11.3591L10.5637 15.8669C10.1732 16.2575 9.54003 16.2575 9.14951 15.8669C8.75898 15.4764 8.75898 14.8432 9.14951 14.4527L13.6573 9.94491C13.999 9.6032 13.999 9.04919 13.6573 8.70748C13.3399 8.39008 12.821 8.3757 12.4546 8.74217L12.4507 8.746L12.4507 8.74599L6.01042 15.1169C6.00981 15.1175 6.00921 15.1181 6.00861 15.1187C4.93647 16.1928 4.93708 17.9327 6.01042 19.006C7.08436 20.0799 8.82556 20.0799 9.8995 19.006L18.4303 10.4752C20.2365 8.66905 20.2365 5.74066 18.4303 3.93449Z" fill="#1E212C"/>
</g>
<defs>
<clipPath id="clip0_1017_7215">
<rect width="24" height="24" fill="white"/>
</clipPath>
</defs>
</svg>
