<svg width="24" height="24" viewBox="0 0 24 24" fill="none" xmlns="http://www.w3.org/2000/svg">
<path fill-rule="evenodd" clip-rule="evenodd" d="M20.7501 17.7499V8.99994C20.7501 8.44765 21.1978 7.99994 21.7501 7.99994C22.3024 7.99994 22.7501 8.44765 22.7501 8.99994V17.7499C22.7501 20.5114 20.5115 22.7499 17.7501 22.7499H6.25009C3.48867 22.7499 1.25009 20.5114 1.25009 17.7499L1.25009 8.99995C1.25009 8.44767 1.69781 7.99995 2.25009 7.99995C2.80237 7.99995 3.25009 8.44767 3.25009 8.99995L3.25009 17.7499C3.25009 19.4068 4.59324 20.7499 6.25009 20.7499H17.7501C19.4069 20.7499 20.7501 19.4068 20.7501 17.7499Z" fill="#1E212C"/>
<path fill-rule="evenodd" clip-rule="evenodd" d="M1.4427 9.21495C1.76856 9.66086 2.3942 9.75818 2.84011 9.43233L11.4101 3.16966C11.7615 2.91285 12.2387 2.91285 12.5901 3.16966L21.1601 9.43233C21.606 9.75818 22.2316 9.66086 22.5575 9.21495C22.8833 8.76904 22.786 8.1434 22.3401 7.81754L13.7701 1.55488C12.7159 0.784442 11.2843 0.784442 10.23 1.55488L1.66007 7.81754C1.21416 8.1434 1.11684 8.76904 1.4427 9.21495Z" fill="#1E212C"/>
<path fill-rule="evenodd" clip-rule="evenodd" d="M1.4279 8.05573C1.74226 7.60164 2.36522 7.48838 2.8193 7.80274L10.2925 12.9765C11.3198 13.6877 12.6804 13.6877 13.7077 12.9765L21.1809 7.80274C21.635 7.48838 22.2579 7.60164 22.5723 8.05573C22.8866 8.50981 22.7734 9.13276 22.3193 9.44713L14.8461 14.6209C13.1339 15.8062 10.8663 15.8062 9.15404 14.6209L1.68088 9.44713C1.2268 9.13276 1.11353 8.50981 1.4279 8.05573Z" fill="#1E212C"/>
</svg>
