<svg width="24" height="24" viewBox="0 0 24 24" fill="none" xmlns="http://www.w3.org/2000/svg">
<path fill-rule="evenodd" clip-rule="evenodd" d="M18.7652 19.7599V15.8083C18.7652 15.2702 19.2013 14.8341 19.7393 14.8341C20.2773 14.8341 20.7134 15.2702 20.7134 15.8083V19.7599C20.7134 22.1017 18.8151 24.0001 16.4735 24.0001L4.24036 24.0001C1.89874 24.0001 0.000488179 22.1017 0.000488281 19.7599L0.000488816 7.5259C0.000488918 5.18411 1.89875 3.28571 4.24037 3.28572L8.19178 3.28573C8.72976 3.28573 9.16587 3.72188 9.16587 4.25989C9.16587 4.79791 8.72975 5.23405 8.19178 5.23405L4.24037 5.23404C2.9747 5.23403 1.94867 6.26014 1.94867 7.5259L1.94867 19.7599C1.94867 21.0257 2.97469 22.0518 4.24036 22.0518H16.4735C17.7392 22.0518 18.7652 21.0257 18.7652 19.7599Z" fill="#1E212C"/>
<path fill-rule="evenodd" clip-rule="evenodd" d="M20.4296 3.57099C20.81 3.95142 20.81 4.56823 20.4296 4.94866L9.60379 15.7753C9.22338 16.1557 8.60662 16.1557 8.22622 15.7753C7.84581 15.3948 7.84581 14.778 8.22622 14.3976L19.052 3.57099C19.4324 3.19056 20.0492 3.19056 20.4296 3.57099Z" fill="#1E212C"/>
<path fill-rule="evenodd" clip-rule="evenodd" d="M19.7424 3.29597C20.2797 3.29696 20.7147 3.73282 20.7147 4.27013L20.7147 10.0337C20.7147 10.5717 20.2786 11.0078 19.7406 11.0078C19.2026 11.0078 18.7665 10.5717 18.7665 10.0337L18.7665 5.24251L13.9651 5.23372C13.4271 5.23273 12.9918 4.79579 12.9927 4.25778C12.9937 3.71976 13.4306 3.28442 13.9686 3.2854L19.7424 3.29597Z" fill="#1E212C"/>
</svg>
