<svg width="24" height="24" viewBox="0 0 24 24" fill="none" xmlns="http://www.w3.org/2000/svg">
<path fill-rule="evenodd" clip-rule="evenodd" d="M6.2 6.4001C6.2 3.19685 8.79675 0.600098 12 0.600098C15.2033 0.600098 17.8 3.19685 17.8 6.4001V11.2001C17.8 14.4033 15.2033 17.0001 12 17.0001C8.79675 17.0001 6.2 14.4033 6.2 11.2001V6.4001ZM12 2.6001C9.90132 2.6001 8.2 4.30142 8.2 6.4001V11.2001C8.2 13.2988 9.90132 15.0001 12 15.0001C14.0987 15.0001 15.8 13.2988 15.8 11.2001V6.4001C15.8 4.30142 14.0987 2.6001 12 2.6001Z" fill="#1E212C"/>
<path fill-rule="evenodd" clip-rule="evenodd" d="M4 8.6001C4.55228 8.6001 5 9.04781 5 9.6001V11.2001C5 15.0661 8.13401 18.2001 12 18.2001C15.866 18.2001 19 15.0661 19 11.2001V9.6001C19 9.04781 19.4477 8.6001 20 8.6001C20.5523 8.6001 21 9.04781 21 9.6001V11.2001C21 16.1707 16.9706 20.2001 12 20.2001C7.02944 20.2001 3 16.1707 3 11.2001V9.6001C3 9.04781 3.44772 8.6001 4 8.6001Z" fill="#1E212C"/>
<path fill-rule="evenodd" clip-rule="evenodd" d="M12 19.0001C12.5523 19.0001 13 19.4478 13 20.0001V21.4001H15.2C15.7523 21.4001 16.2 21.8478 16.2 22.4001C16.2 22.9524 15.7523 23.4001 15.2 23.4001H8.8C8.24772 23.4001 7.8 22.9524 7.8 22.4001C7.8 21.8478 8.24772 21.4001 8.8 21.4001H11V20.0001C11 19.4478 11.4477 19.0001 12 19.0001Z" fill="#1E212C"/>
</svg>
