<svg width="24" height="24" viewBox="0 0 24 24" fill="none" xmlns="http://www.w3.org/2000/svg">
<path fill-rule="evenodd" clip-rule="evenodd" d="M12.784 4.17116C12.2705 4.03214 11.7294 4.03214 11.2159 4.17116C10.6814 4.31589 10.163 4.69507 8.68467 5.84486L6.08467 7.86708C5.13323 8.60709 4.81379 8.86655 4.58799 9.17184C4.371 9.46522 4.20935 9.79573 4.11099 10.1471C4.00864 10.5128 3.99995 10.9242 3.99995 12.1296V18.7495C3.99995 19.52 4.01081 19.6836 4.04301 19.7897C4.13996 20.1093 4.39007 20.3594 4.70967 20.4564C4.81583 20.4886 4.97942 20.4995 5.74995 20.4995H6.37495C6.50289 20.4995 6.53068 20.4991 6.54902 20.4982C7.06272 20.473 7.47351 20.0622 7.49875 19.5485C7.49965 19.5302 7.49995 19.5024 7.49995 19.3745V16.4994C7.49995 14.0142 9.51467 11.9994 12 11.9994C14.4852 11.9994 16.5 14.0142 16.5 16.4994V19.3745C16.5 19.5024 16.5003 19.5302 16.5012 19.5485C16.5264 20.0622 16.9372 20.473 17.4509 20.4982C17.4692 20.4991 17.497 20.4995 17.625 20.4995H18.25C19.0205 20.4995 19.1841 20.4886 19.2902 20.4564C19.6098 20.3594 19.8599 20.1093 19.9569 19.7897C19.9891 19.6836 20 19.52 20 18.7495V12.1296C20 10.9242 19.9913 10.5128 19.8889 10.1471C19.7906 9.79573 19.6289 9.46522 19.4119 9.17184C19.1861 8.86655 18.8667 8.60709 17.9152 7.86709L15.3152 5.84486C13.8369 4.69507 13.3185 4.31589 12.784 4.17116ZM10.6932 2.24067C11.549 2.00897 12.4509 2.00897 13.3067 2.24067C14.28 2.50419 15.134 3.16908 16.3729 4.13372C16.4289 4.17726 16.4856 4.22141 16.5431 4.26616L19.1431 6.28838C19.1791 6.31633 19.2145 6.34389 19.2495 6.37109C20.0538 6.99625 20.6103 7.42873 21.0199 7.98255C21.3815 8.47152 21.6509 9.02236 21.8149 9.60803C22.0006 10.2714 22.0003 10.9761 22 11.9948C22 12.0392 22 12.0841 22 12.1296V18.7495C22 18.7918 22 18.8337 22.0001 18.8753C22.0007 19.4465 22.0013 19.94 21.8708 20.3703C21.5799 21.3291 20.8296 22.0794 19.8708 22.3703C19.4405 22.5008 18.9471 22.5002 18.3758 22.4996C18.3342 22.4995 18.2923 22.4995 18.25 22.4995L17.604 22.4995C17.5088 22.4995 17.4271 22.4995 17.3527 22.4958C15.8116 22.4201 14.5793 21.1878 14.5036 19.6467C14.4999 19.5723 14.4999 19.4906 14.4999 19.3954L14.5 16.4994C14.5 15.1187 13.3807 13.9994 12 13.9994C10.6192 13.9994 9.49995 15.1187 9.49995 16.4994L9.49995 19.3954C9.49997 19.4906 9.49999 19.5723 9.49634 19.6467C9.42063 21.1878 8.18827 22.4201 6.64715 22.4958C6.57282 22.4995 6.49106 22.4995 6.3959 22.4995L5.74995 22.4995C5.70759 22.4995 5.66565 22.4995 5.62412 22.4996C5.05285 22.5002 4.55944 22.5008 4.1291 22.3703C3.17029 22.0794 2.41998 21.3291 2.12913 20.3703C1.99859 19.94 1.99917 19.4465 1.99985 18.8753C1.9999 18.8337 1.99995 18.7918 1.99995 18.7495V12.1296C1.99995 12.0841 1.99994 12.0391 1.99992 11.9948C1.99958 10.9761 1.99934 10.2714 2.18502 9.60803C2.34896 9.02236 2.61837 8.47152 2.98002 7.98255C3.38964 7.42873 3.94607 6.99625 4.75041 6.37108C4.7854 6.34389 4.82085 6.31633 4.85679 6.28838L7.45679 4.26616C7.51433 4.2214 7.57104 4.17725 7.62696 4.13371C8.86594 3.16908 9.71993 2.50419 10.6932 2.24067Z" fill="#1E212C"/>
</svg>
