<svg width="16" height="16" viewBox="0 0 16 16" fill="none" xmlns="http://www.w3.org/2000/svg">
<g clip-path="url(#clip0_1016_6858)">
<path fill-rule="evenodd" clip-rule="evenodd" d="M4.83398 2.49998C4.83398 1.57951 5.58018 0.833313 6.50065 0.833313H9.50065C10.4211 0.833313 11.1673 1.57951 11.1673 2.49998V2.83331H14.5007C14.8688 2.83331 15.1673 3.13179 15.1673 3.49998C15.1673 3.86817 14.8688 4.16665 14.5007 4.16665H13.6673V12.5C13.6673 13.9727 12.4734 15.1666 11.0007 15.1666H5.00065C3.52789 15.1666 2.33398 13.9727 2.33398 12.5V4.16665H1.50065C1.13246 4.16665 0.833984 3.86817 0.833984 3.49998C0.833984 3.13179 1.13246 2.83331 1.50065 2.83331H4.83398V2.49998ZM6.16732 2.83331H9.83398V2.49998C9.83398 2.31588 9.68475 2.16665 9.50065 2.16665H6.50065C6.31656 2.16665 6.16732 2.31588 6.16732 2.49998V2.83331ZM3.66732 4.16665V12.5C3.66732 13.2364 4.26427 13.8333 5.00065 13.8333H11.0007C11.737 13.8333 12.334 13.2364 12.334 12.5V4.16665H3.66732ZM8.00065 5.33331C8.36884 5.33331 8.66732 5.63179 8.66732 5.99998L8.66732 12C8.66732 12.3682 8.36884 12.6666 8.00065 12.6666C7.63246 12.6666 7.33399 12.3682 7.33399 12L7.33398 5.99998C7.33398 5.63179 7.63246 5.33331 8.00065 5.33331Z" fill="#787A80"/>
</g>
<defs>
<clipPath id="clip0_1016_6858">
<rect width="16" height="16" fill="white"/>
</clipPath>
</defs>
</svg>
