<svg width="48" height="48" viewBox="0 0 48 48" fill="none" xmlns="http://www.w3.org/2000/svg">
<g clip-path="url(#clip0_1017_7192)">
<path d="M23.9436 27.2813C24.4611 27.2813 24.8811 26.8612 24.8811 26.3438C24.8811 25.8263 24.4611 25.4062 23.9436 25.4062C23.4261 25.4062 23.0061 25.8263 23.0061 26.3438C23.0061 26.8612 23.4261 27.2813 23.9436 27.2813Z" fill="#17696A"/>
<path d="M23.4082 47.7316C23.5712 47.8481 23.762 47.9063 23.9532 47.9063C24.1443 47.9063 24.3351 47.8481 24.4981 47.7316C34.05 40.9088 43.6407 37.915 43.6407 23.8762V6.49583C43.6407 6.00841 43.2668 5.60228 42.7812 5.56163L40.3444 5.35801C34.7579 4.89256 29.2618 3.05637 24.4501 0.0486758C24.1462 -0.141388 23.7602 -0.141388 23.4562 0.0486758C18.6442 3.05637 13.1481 4.89256 7.56153 5.35838L5.12512 5.56163C4.63916 5.60228 4.26562 6.00841 4.26562 6.49583V23.8762C4.26562 38.3108 15.2033 41.8708 23.4082 47.7316V47.7316ZM6.14063 7.35826L7.71754 7.22679C13.4088 6.75218 19.0089 4.92845 23.9532 1.94382C28.897 4.92845 34.4975 6.75218 40.1884 7.22679L41.7657 7.35826V23.8762C41.7657 36.5351 33.3308 39.2513 23.9517 45.8215C15.7204 40.1078 6.14063 36.8654 6.14063 23.8762V7.35826Z" fill="#17696A"/>
<path d="M23.4068 40.9172C23.7473 41.1498 24.1762 41.1329 24.4995 40.8927C32.9865 35.0183 38.0157 33.0854 38.0157 23.8774V11.5811C38.0157 11.1171 37.6762 10.7227 37.2173 10.6539C32.7305 9.97967 28.4125 8.58331 24.3831 6.50359C24.093 6.35381 23.7477 6.37285 23.4818 6.52447C19.4638 8.5932 15.1597 9.9826 10.689 10.6539C10.2301 10.7227 9.89062 11.1168 9.89062 11.5811V23.8774C9.89062 33.1722 15.3988 35.4534 23.4068 40.9172V40.9172ZM11.7656 12.3806C15.6647 11.721 19.4352 10.5349 23.0061 8.84845V22.5938C23.0061 23.1117 23.4258 23.5313 23.9436 23.5313C24.4615 23.5313 24.8811 23.1117 24.8811 22.5938V8.83966C28.4572 10.5301 32.2347 11.7195 36.1407 12.3806V23.8774C36.1407 31.4983 32.5708 33.1598 24.8811 38.3604V30.0939C24.8811 29.576 24.4615 29.1564 23.9436 29.1564C23.4258 29.1564 23.0061 29.576 23.0061 30.0939V38.3875C15.8214 33.6047 11.7656 31.5609 11.7656 23.8774V12.3806Z" fill="#17696A"/>
</g>
<defs>
<clipPath id="clip0_1017_7192">
<rect width="47.9064" height="48" fill="white"/>
</clipPath>
</defs>
</svg>
